<?xml version="1.0" encoding="utf-8"?>
<!-- Generator: Adobe Illustrator 19.2.1, SVG Export Plug-In . SVG Version: 6.00 Build 0)  -->
<svg version="1.1" id="Layer_1" xmlns="http://www.w3.org/2000/svg" xmlns:xlink="http://www.w3.org/1999/xlink" x="0px" y="0px"
	 width="328px" height="130px" viewBox="0 0 328 130" style="enable-background:new 0 0 328 130;" xml:space="preserve">
<style type="text/css">
	.st0{fill:none;stroke:#404459;stroke-width:2;stroke-linecap:round;stroke-miterlimit:10;}
	.st1{opacity:0.6;}
	.st2{fill:none;stroke:#36D576;stroke-width:2;stroke-linecap:round;stroke-miterlimit:10;}
	.st3{fill:none;stroke:#36D576;stroke-width:2;stroke-linecap:round;stroke-miterlimit:10;stroke-dasharray:0,4.9732;}
	.st4{fill:none;stroke:#36D576;stroke-width:2;stroke-linecap:round;stroke-miterlimit:10;stroke-dasharray:0,5.0507;}
	.st5{fill:none;stroke:#36D576;stroke-width:2;stroke-linecap:round;stroke-miterlimit:10;stroke-dasharray:0,4.9255;}
	.st6{fill:none;stroke:#36D576;stroke-width:2;stroke-linecap:round;stroke-miterlimit:10;stroke-dasharray:0,5.0095;}
	.st7{fill:none;stroke:#36D576;stroke-width:2;stroke-linecap:round;stroke-miterlimit:10;stroke-dasharray:0,4.969;}
	.st8{fill:none;stroke:#36D576;stroke-width:2;stroke-linecap:round;stroke-miterlimit:10;stroke-dasharray:0,5.0268;}
	.st9{fill:#36D576;}
	.st10{fill:#FFFFFF;}
</style>
<g>
	<g>
		<g>
			<line class="st0" x1="314" y1="115" x2="314" y2="115"/>
			<line class="st0" x1="314" y1="95" x2="314" y2="95"/>
			<line class="st0" x1="314" y1="75" x2="314" y2="75"/>
			<line class="st0" x1="314" y1="55" x2="314" y2="55"/>
			<line class="st0" x1="314" y1="35" x2="314" y2="35"/>
			<line class="st0" x1="314" y1="15" x2="314" y2="15"/>
			<line class="st0" x1="294" y1="115" x2="294" y2="115"/>
			<line class="st0" x1="294" y1="95" x2="294" y2="95"/>
			<line class="st0" x1="294" y1="75" x2="294" y2="75"/>
			<line class="st0" x1="294" y1="55" x2="294" y2="55"/>
			<line class="st0" x1="294" y1="35" x2="294" y2="35"/>
			<line class="st0" x1="294" y1="15" x2="294" y2="15"/>
			<line class="st0" x1="274" y1="115" x2="274" y2="115"/>
			<line class="st0" x1="274" y1="95" x2="274" y2="95"/>
			<line class="st0" x1="274" y1="75" x2="274" y2="75"/>
			<line class="st0" x1="274" y1="55" x2="274" y2="55"/>
			<line class="st0" x1="274" y1="35" x2="274" y2="35"/>
			<line class="st0" x1="274" y1="15" x2="274" y2="15"/>
			<line class="st0" x1="254" y1="115" x2="254" y2="115"/>
			<line class="st0" x1="254" y1="95" x2="254" y2="95"/>
			<line class="st0" x1="254" y1="75" x2="254" y2="75"/>
			<line class="st0" x1="254" y1="55" x2="254" y2="55"/>
			<line class="st0" x1="254" y1="35" x2="254" y2="35"/>
			<line class="st0" x1="254" y1="15" x2="254" y2="15"/>
			<line class="st0" x1="234" y1="115" x2="234" y2="115"/>
			<line class="st0" x1="234" y1="95" x2="234" y2="95"/>
			<line class="st0" x1="234" y1="75" x2="234" y2="75"/>
			<line class="st0" x1="234" y1="55" x2="234" y2="55"/>
			<line class="st0" x1="234" y1="35" x2="234" y2="35"/>
			<line class="st0" x1="234" y1="15" x2="234" y2="15"/>
			<line class="st0" x1="214" y1="115" x2="214" y2="115"/>
			<line class="st0" x1="214" y1="95" x2="214" y2="95"/>
			<line class="st0" x1="214" y1="75" x2="214" y2="75"/>
			<line class="st0" x1="214" y1="55" x2="214" y2="55"/>
			<line class="st0" x1="214" y1="35" x2="214" y2="35"/>
			<line class="st0" x1="214" y1="15" x2="214" y2="15"/>
			<line class="st0" x1="194" y1="115" x2="194" y2="115"/>
			<line class="st0" x1="194" y1="95" x2="194" y2="95"/>
			<line class="st0" x1="194" y1="75" x2="194" y2="75"/>
			<line class="st0" x1="194" y1="55" x2="194" y2="55"/>
			<line class="st0" x1="194" y1="35" x2="194" y2="35"/>
			<line class="st0" x1="194" y1="15" x2="194" y2="15"/>
			<line class="st0" x1="174" y1="115" x2="174" y2="115"/>
			<line class="st0" x1="174" y1="95" x2="174" y2="95"/>
			<line class="st0" x1="174" y1="75" x2="174" y2="75"/>
			<line class="st0" x1="174" y1="55" x2="174" y2="55"/>
			<line class="st0" x1="174" y1="35" x2="174" y2="35"/>
			<line class="st0" x1="174" y1="15" x2="174" y2="15"/>
			<line class="st0" x1="154" y1="115" x2="154" y2="115"/>
			<line class="st0" x1="154" y1="95" x2="154" y2="95"/>
			<line class="st0" x1="154" y1="75" x2="154" y2="75"/>
			<line class="st0" x1="154" y1="55" x2="154" y2="55"/>
			<line class="st0" x1="154" y1="35" x2="154" y2="35"/>
			<line class="st0" x1="154" y1="15" x2="154" y2="15"/>
			<line class="st0" x1="134" y1="115" x2="134" y2="115"/>
			<line class="st0" x1="134" y1="95" x2="134" y2="95"/>
			<line class="st0" x1="134" y1="75" x2="134" y2="75"/>
			<line class="st0" x1="134" y1="55" x2="134" y2="55"/>
			<line class="st0" x1="134" y1="35" x2="134" y2="35"/>
			<line class="st0" x1="134" y1="15" x2="134" y2="15"/>
			<line class="st0" x1="114" y1="115" x2="114" y2="115"/>
			<line class="st0" x1="114" y1="95" x2="114" y2="95"/>
			<line class="st0" x1="114" y1="75" x2="114" y2="75"/>
			<line class="st0" x1="114" y1="55" x2="114" y2="55"/>
			<line class="st0" x1="114" y1="35" x2="114" y2="35"/>
			<line class="st0" x1="114" y1="15" x2="114" y2="15"/>
			<line class="st0" x1="94" y1="115" x2="94" y2="115"/>
			<line class="st0" x1="94" y1="95" x2="94" y2="95"/>
			<line class="st0" x1="94" y1="75" x2="94" y2="75"/>
			<line class="st0" x1="94" y1="55" x2="94" y2="55"/>
			<line class="st0" x1="94" y1="35" x2="94" y2="35"/>
			<line class="st0" x1="94" y1="15" x2="94" y2="15"/>
			<line class="st0" x1="74" y1="115" x2="74" y2="115"/>
			<line class="st0" x1="74" y1="95" x2="74" y2="95"/>
			<line class="st0" x1="74" y1="75" x2="74" y2="75"/>
			<line class="st0" x1="74" y1="55" x2="74" y2="55"/>
			<line class="st0" x1="74" y1="35" x2="74" y2="35"/>
			<line class="st0" x1="74" y1="15" x2="74" y2="15"/>
			<line class="st0" x1="54" y1="115" x2="54" y2="115"/>
			<line class="st0" x1="54" y1="95" x2="54" y2="95"/>
			<line class="st0" x1="54" y1="75" x2="54" y2="75"/>
			<line class="st0" x1="54" y1="55" x2="54" y2="55"/>
			<line class="st0" x1="54" y1="35" x2="54" y2="35"/>
			<line class="st0" x1="54" y1="15" x2="54" y2="15"/>
			<line class="st0" x1="34" y1="115" x2="34" y2="115"/>
			<line class="st0" x1="34" y1="95" x2="34" y2="95"/>
			<line class="st0" x1="34" y1="75" x2="34" y2="75"/>
			<line class="st0" x1="34" y1="55" x2="34" y2="55"/>
			<line class="st0" x1="34" y1="35" x2="34" y2="35"/>
			<line class="st0" x1="34" y1="15" x2="34" y2="15"/>
			<line class="st0" x1="14" y1="115" x2="14" y2="115"/>
			<line class="st0" x1="14" y1="95" x2="14" y2="95"/>
			<line class="st0" x1="14" y1="75" x2="14" y2="75"/>
			<line class="st0" x1="14" y1="55" x2="14" y2="55"/>
			<line class="st0" x1="14" y1="35" x2="14" y2="35"/>
			<line class="st0" x1="14" y1="15" x2="14" y2="15"/>
		</g>
		<g class="st1">
			<g>
				<line class="st2" x1="14" y1="95" x2="14" y2="95"/>
				<line class="st3" x1="18.1" y1="92.2" x2="131.9" y2="16.4"/>
				<line class="st2" x1="134" y1="15" x2="134" y2="15"/>
				<line class="st4" x1="138.6" y1="17.1" x2="311.7" y2="94"/>
				<line class="st2" x1="314" y1="95" x2="314" y2="95"/>
			</g>
		</g>
		<g class="st1">
			<g>
				<line class="st2" x1="314" y1="35" x2="314" y2="35"/>
				<line class="st5" x1="310.2" y1="38.1" x2="215.9" y2="113.5"/>
				<line class="st2" x1="214" y1="115" x2="214" y2="115"/>
				<line class="st6" x1="209.3" y1="113.1" x2="16.3" y2="35.9"/>
				<line class="st2" x1="14" y1="35" x2="14" y2="35"/>
			</g>
		</g>
		<g class="st1">
			<g>
				<line class="st2" x1="14" y1="75" x2="14" y2="75"/>
				<polyline class="st7" points="18.9,74.1 234,35 311.8,73.9 				"/>
				<line class="st2" x1="314" y1="75" x2="314" y2="75"/>
			</g>
		</g>
		<g class="st1">
			<g>
				<line class="st2" x1="314" y1="55" x2="314" y2="55"/>
				<polyline class="st8" points="309.1,56 114,95 16.3,55.9 				"/>
				<line class="st2" x1="14" y1="55" x2="14" y2="55"/>
			</g>
		</g>
		<circle class="st9" cx="214" cy="115" r="2"/>
		<circle class="st9" cx="114" cy="95" r="2"/>
		<circle class="st9" cx="234" cy="35" r="2"/>
		<circle class="st9" cx="134" cy="15" r="2"/>
		<g>
			<g>
				<g>
					<g>
						<g>
							<g>
								<path class="st10" d="M179,90.3l-1-0.5c-0.2-0.1-3.8-1.8-5.1-2.6c-12.2-7.6-23-17.8-31.2-29.5c-0.9-1.3-3.3-4.9-3.3-4.9
									l-0.7-1.1l12-12.1l13.7,13.7l-4.8,4.8c4,4.4,8.4,8.7,13.1,12.4l5.3-5.3l13.6,13.6L179,90.3z M141.6,52.2
									c0.8,1.1,2,2.9,2.6,3.8c8,11.4,18.5,21.3,30.3,28.6c0.7,0.5,2.6,1.4,3.8,2l7.6-7.6l-9.2-9.2l-5,5l-1.1-0.8
									c-5.6-4.3-11-9.4-15.6-14.7l-0.9-1.1l4.6-4.7l-9.2-9.2L141.6,52.2z"/>
							</g>
						</g>
					</g>
				</g>
			</g>
		</g>
	</g>
</g>
</svg>
