<?xml version="1.0" encoding="utf-8"?>
<!-- Generator: Adobe Illustrator 19.2.1, SVG Export Plug-In . SVG Version: 6.00 Build 0)  -->
<svg version="1.1" id="Layer_1" xmlns="http://www.w3.org/2000/svg" xmlns:xlink="http://www.w3.org/1999/xlink" x="0px" y="0px"
	 width="328px" height="130px" viewBox="0 0 328 130" style="enable-background:new 0 0 328 130;" xml:space="preserve">
<style type="text/css">
	.st0{fill:none;stroke:#404459;stroke-width:2;stroke-linecap:round;stroke-miterlimit:10;}
	.st1{opacity:0.6;}
	.st2{fill:none;stroke:#F47C22;stroke-width:2;stroke-linecap:round;stroke-miterlimit:10;}
	.st3{fill:none;stroke:#F47C22;stroke-width:2;stroke-linecap:round;stroke-miterlimit:10;stroke-dasharray:0,5;}
	.st4{fill:#F47C22;}
	.st5{fill:#FFFFFF;}
</style>
<g>
	<g>
		<line class="st0" x1="314" y1="115" x2="314" y2="115"/>
		<line class="st0" x1="314" y1="95" x2="314" y2="95"/>
		<line class="st0" x1="314" y1="75" x2="314" y2="75"/>
		<line class="st0" x1="314" y1="55" x2="314" y2="55"/>
		<line class="st0" x1="314" y1="35" x2="314" y2="35"/>
		<line class="st0" x1="314" y1="15" x2="314" y2="15"/>
		<line class="st0" x1="294" y1="115" x2="294" y2="115"/>
		<line class="st0" x1="294" y1="95" x2="294" y2="95"/>
		<line class="st0" x1="294" y1="75" x2="294" y2="75"/>
		<line class="st0" x1="294" y1="55" x2="294" y2="55"/>
		<line class="st0" x1="294" y1="35" x2="294" y2="35"/>
		<line class="st0" x1="294" y1="15" x2="294" y2="15"/>
		<line class="st0" x1="274" y1="115" x2="274" y2="115"/>
		<line class="st0" x1="274" y1="95" x2="274" y2="95"/>
		<line class="st0" x1="274" y1="75" x2="274" y2="75"/>
		<line class="st0" x1="274" y1="55" x2="274" y2="55"/>
		<line class="st0" x1="274" y1="35" x2="274" y2="35"/>
		<line class="st0" x1="274" y1="15" x2="274" y2="15"/>
		<line class="st0" x1="254" y1="115" x2="254" y2="115"/>
		<line class="st0" x1="254" y1="95" x2="254" y2="95"/>
		<line class="st0" x1="254" y1="75" x2="254" y2="75"/>
		<line class="st0" x1="254" y1="55" x2="254" y2="55"/>
		<line class="st0" x1="254" y1="35" x2="254" y2="35"/>
		<line class="st0" x1="254" y1="15" x2="254" y2="15"/>
		<line class="st0" x1="234" y1="115" x2="234" y2="115"/>
		<line class="st0" x1="234" y1="95" x2="234" y2="95"/>
		<line class="st0" x1="234" y1="75" x2="234" y2="75"/>
		<line class="st0" x1="234" y1="55" x2="234" y2="55"/>
		<line class="st0" x1="234" y1="35" x2="234" y2="35"/>
		<line class="st0" x1="234" y1="15" x2="234" y2="15"/>
		<line class="st0" x1="214" y1="115" x2="214" y2="115"/>
		<line class="st0" x1="214" y1="95" x2="214" y2="95"/>
		<line class="st0" x1="214" y1="75" x2="214" y2="75"/>
		<line class="st0" x1="214" y1="55" x2="214" y2="55"/>
		<line class="st0" x1="214" y1="35" x2="214" y2="35"/>
		<line class="st0" x1="214" y1="15" x2="214" y2="15"/>
		<line class="st0" x1="194" y1="115" x2="194" y2="115"/>
		<line class="st0" x1="194" y1="95" x2="194" y2="95"/>
		<line class="st0" x1="194" y1="75" x2="194" y2="75"/>
		<line class="st0" x1="194" y1="55" x2="194" y2="55"/>
		<line class="st0" x1="194" y1="35" x2="194" y2="35"/>
		<line class="st0" x1="194" y1="15" x2="194" y2="15"/>
		<line class="st0" x1="174" y1="115" x2="174" y2="115"/>
		<line class="st0" x1="174" y1="95" x2="174" y2="95"/>
		<line class="st0" x1="174" y1="75" x2="174" y2="75"/>
		<line class="st0" x1="174" y1="55" x2="174" y2="55"/>
		<line class="st0" x1="174" y1="35" x2="174" y2="35"/>
		<line class="st0" x1="174" y1="15" x2="174" y2="15"/>
		<line class="st0" x1="154" y1="115" x2="154" y2="115"/>
		<line class="st0" x1="154" y1="95" x2="154" y2="95"/>
		<line class="st0" x1="154" y1="75" x2="154" y2="75"/>
		<line class="st0" x1="154" y1="55" x2="154" y2="55"/>
		<line class="st0" x1="154" y1="35" x2="154" y2="35"/>
		<line class="st0" x1="154" y1="15" x2="154" y2="15"/>
		<line class="st0" x1="134" y1="115" x2="134" y2="115"/>
		<line class="st0" x1="134" y1="95" x2="134" y2="95"/>
		<line class="st0" x1="134" y1="75" x2="134" y2="75"/>
		<line class="st0" x1="134" y1="55" x2="134" y2="55"/>
		<line class="st0" x1="134" y1="35" x2="134" y2="35"/>
		<line class="st0" x1="134" y1="15" x2="134" y2="15"/>
		<line class="st0" x1="114" y1="115" x2="114" y2="115"/>
		<line class="st0" x1="114" y1="95" x2="114" y2="95"/>
		<line class="st0" x1="114" y1="75" x2="114" y2="75"/>
		<line class="st0" x1="114" y1="55" x2="114" y2="55"/>
		<line class="st0" x1="114" y1="35" x2="114" y2="35"/>
		<line class="st0" x1="114" y1="15" x2="114" y2="15"/>
		<line class="st0" x1="94" y1="115" x2="94" y2="115"/>
		<line class="st0" x1="94" y1="95" x2="94" y2="95"/>
		<line class="st0" x1="94" y1="75" x2="94" y2="75"/>
		<line class="st0" x1="94" y1="55" x2="94" y2="55"/>
		<line class="st0" x1="94" y1="35" x2="94" y2="35"/>
		<line class="st0" x1="94" y1="15" x2="94" y2="15"/>
		<line class="st0" x1="74" y1="115" x2="74" y2="115"/>
		<line class="st0" x1="74" y1="95" x2="74" y2="95"/>
		<line class="st0" x1="74" y1="75" x2="74" y2="75"/>
		<line class="st0" x1="74" y1="55" x2="74" y2="55"/>
		<line class="st0" x1="74" y1="35" x2="74" y2="35"/>
		<line class="st0" x1="74" y1="15" x2="74" y2="15"/>
		<line class="st0" x1="54" y1="115" x2="54" y2="115"/>
		<line class="st0" x1="54" y1="95" x2="54" y2="95"/>
		<line class="st0" x1="54" y1="75" x2="54" y2="75"/>
		<line class="st0" x1="54" y1="55" x2="54" y2="55"/>
		<line class="st0" x1="54" y1="35" x2="54" y2="35"/>
		<line class="st0" x1="54" y1="15" x2="54" y2="15"/>
		<line class="st0" x1="34" y1="115" x2="34" y2="115"/>
		<line class="st0" x1="34" y1="95" x2="34" y2="95"/>
		<line class="st0" x1="34" y1="75" x2="34" y2="75"/>
		<line class="st0" x1="34" y1="55" x2="34" y2="55"/>
		<line class="st0" x1="34" y1="35" x2="34" y2="35"/>
		<line class="st0" x1="34" y1="15" x2="34" y2="15"/>
		<line class="st0" x1="14" y1="115" x2="14" y2="115"/>
		<line class="st0" x1="14" y1="95" x2="14" y2="95"/>
		<line class="st0" x1="14" y1="75" x2="14" y2="75"/>
		<line class="st0" x1="14" y1="55" x2="14" y2="55"/>
		<line class="st0" x1="14" y1="35" x2="14" y2="35"/>
		<line class="st0" x1="14" y1="15" x2="14" y2="15"/>
	</g>
	<g class="st1">
		<line class="st2" x1="314" y1="35" x2="314" y2="35"/>
		<line class="st3" x1="314" y1="40" x2="314" y2="112.5"/>
		<line class="st2" x1="314" y1="115" x2="314" y2="115"/>
		<line class="st3" x1="309" y1="115" x2="276.5" y2="115"/>
		<line class="st2" x1="274" y1="115" x2="274" y2="115"/>
	</g>
	<g class="st1">
		<line class="st2" x1="234" y1="35" x2="234" y2="35"/>
		<line class="st3" x1="234" y1="40" x2="234" y2="92.5"/>
		<line class="st2" x1="234" y1="95" x2="234" y2="95"/>
		<line class="st3" x1="229" y1="95" x2="196.5" y2="95"/>
		<line class="st2" x1="194" y1="95" x2="194" y2="95"/>
	</g>
	<g class="st1">
		<line class="st2" x1="274" y1="55" x2="274" y2="55"/>
		<line class="st3" x1="274" y1="50" x2="274" y2="17.5"/>
		<line class="st2" x1="274" y1="15" x2="274" y2="15"/>
		<line class="st3" x1="269" y1="15" x2="236.5" y2="15"/>
		<line class="st2" x1="234" y1="15" x2="234" y2="15"/>
	</g>
	<circle class="st4" cx="234" cy="35" r="2"/>
	<circle class="st4" cx="314" cy="35" r="2"/>
	<circle class="st4" cx="274" cy="115" r="2"/>
	<circle class="st4" cx="194" cy="95" r="2"/>
	<circle class="st4" cx="274" cy="55" r="2"/>
	<circle class="st4" cx="234" cy="15" r="2"/>
	<g class="st1">
		<line class="st2" x1="14" y1="95" x2="14" y2="95"/>
		<line class="st3" x1="14" y1="90" x2="14" y2="17.5"/>
		<line class="st2" x1="14" y1="15" x2="14" y2="15"/>
		<line class="st3" x1="19" y1="15" x2="51.5" y2="15"/>
		<line class="st2" x1="54" y1="15" x2="54" y2="15"/>
	</g>
	<g class="st1">
		<line class="st2" x1="94" y1="95" x2="94" y2="95"/>
		<line class="st3" x1="94" y1="90" x2="94" y2="37.5"/>
		<line class="st2" x1="94" y1="35" x2="94" y2="35"/>
		<line class="st3" x1="99" y1="35" x2="111.5" y2="35"/>
		<line class="st2" x1="114" y1="35" x2="114" y2="35"/>
	</g>
	<g class="st1">
		<line class="st2" x1="54" y1="75" x2="54" y2="75"/>
		<line class="st3" x1="54" y1="80" x2="54" y2="112.5"/>
		<line class="st2" x1="54" y1="115" x2="54" y2="115"/>
		<line class="st3" x1="59" y1="115" x2="91.5" y2="115"/>
		<line class="st2" x1="94" y1="115" x2="94" y2="115"/>
	</g>
	<g class="st1">
		<line class="st2" x1="134" y1="95" x2="134" y2="95"/>
		<line class="st3" x1="134" y1="100" x2="134" y2="112.5"/>
		<line class="st2" x1="134" y1="115" x2="134" y2="115"/>
		<line class="st3" x1="139" y1="115" x2="151.5" y2="115"/>
		<line class="st2" x1="154" y1="115" x2="154" y2="115"/>
	</g>
	<g class="st1">
		<line class="st2" x1="194" y1="15" x2="194" y2="15"/>
		<line class="st3" x1="189" y1="15" x2="156.5" y2="15"/>
		<line class="st2" x1="154" y1="15" x2="154" y2="15"/>
	</g>
	<circle class="st4" cx="94" cy="95" r="2"/>
	<circle class="st4" cx="14" cy="95" r="2"/>
	<circle class="st4" cx="54" cy="15" r="2"/>
	<circle class="st4" cx="114" cy="35" r="2"/>
	<circle class="st4" cx="54" cy="75" r="2"/>
	<circle class="st4" cx="94" cy="115" r="2"/>
	<circle class="st4" cx="134" cy="95" r="2"/>
	<circle class="st4" cx="154" cy="115" r="2"/>
	<circle class="st4" cx="194" cy="15" r="2"/>
	<circle class="st4" cx="154" cy="15" r="2"/>
	<g>
		<g>
			<path class="st5" d="M146.5,86.3V74.9h-7.2V43.7h49.4v31.2h-26.9L146.5,86.3z M142.5,71.7h7.2v8.2l11-8.2h24.7V47h-42.9V71.7z"/>
		</g>
	</g>
</g>
</svg>
