<?xml version="1.0" encoding="utf-8"?>
<!-- Generator: Adobe Illustrator 18.1.1, SVG Export Plug-In . SVG Version: 6.00 Build 0)  -->
<!DOCTYPE svg PUBLIC "-//W3C//DTD SVG 1.1//EN" "http://www.w3.org/Graphics/SVG/1.1/DTD/svg11.dtd">
<svg version="1.1" id="Layer_1" xmlns="http://www.w3.org/2000/svg" xmlns:xlink="http://www.w3.org/1999/xlink" x="0px" y="0px"
	 width="328px" height="130px" viewBox="14 -11 328 130" enable-background="new 14 -11 328 130" xml:space="preserve">
<g>
	<g>
		
			<line fill="none" stroke="#404459" stroke-width="2" stroke-linecap="round" stroke-miterlimit="10" x1="328" y1="104" x2="328" y2="104"/>
		
			<line fill="none" stroke="#404459" stroke-width="2" stroke-linecap="round" stroke-miterlimit="10" x1="328" y1="84" x2="328" y2="84"/>
		
			<line fill="none" stroke="#404459" stroke-width="2" stroke-linecap="round" stroke-miterlimit="10" x1="328" y1="64" x2="328" y2="64"/>
		
			<line fill="none" stroke="#404459" stroke-width="2" stroke-linecap="round" stroke-miterlimit="10" x1="328" y1="44" x2="328" y2="44"/>
		
			<line fill="none" stroke="#404459" stroke-width="2" stroke-linecap="round" stroke-miterlimit="10" x1="328" y1="24" x2="328" y2="24"/>
		
			<line fill="none" stroke="#404459" stroke-width="2" stroke-linecap="round" stroke-miterlimit="10" x1="328" y1="4" x2="328" y2="4"/>
		
			<line fill="none" stroke="#404459" stroke-width="2" stroke-linecap="round" stroke-miterlimit="10" x1="308" y1="104" x2="308" y2="104"/>
		
			<line fill="none" stroke="#404459" stroke-width="2" stroke-linecap="round" stroke-miterlimit="10" x1="308" y1="84" x2="308" y2="84"/>
		
			<line fill="none" stroke="#404459" stroke-width="2" stroke-linecap="round" stroke-miterlimit="10" x1="308" y1="64" x2="308" y2="64"/>
		
			<line fill="none" stroke="#404459" stroke-width="2" stroke-linecap="round" stroke-miterlimit="10" x1="308" y1="44" x2="308" y2="44"/>
		
			<line fill="none" stroke="#404459" stroke-width="2" stroke-linecap="round" stroke-miterlimit="10" x1="308" y1="24" x2="308" y2="24"/>
		
			<line fill="none" stroke="#404459" stroke-width="2" stroke-linecap="round" stroke-miterlimit="10" x1="308" y1="4" x2="308" y2="4"/>
		
			<line fill="none" stroke="#404459" stroke-width="2" stroke-linecap="round" stroke-miterlimit="10" x1="288" y1="104" x2="288" y2="104"/>
		
			<line fill="none" stroke="#404459" stroke-width="2" stroke-linecap="round" stroke-miterlimit="10" x1="288" y1="84" x2="288" y2="84"/>
		
			<line fill="none" stroke="#404459" stroke-width="2" stroke-linecap="round" stroke-miterlimit="10" x1="288" y1="64" x2="288" y2="64"/>
		
			<line fill="none" stroke="#404459" stroke-width="2" stroke-linecap="round" stroke-miterlimit="10" x1="288" y1="44" x2="288" y2="44"/>
		
			<line fill="none" stroke="#404459" stroke-width="2" stroke-linecap="round" stroke-miterlimit="10" x1="288" y1="24" x2="288" y2="24"/>
		
			<line fill="none" stroke="#404459" stroke-width="2" stroke-linecap="round" stroke-miterlimit="10" x1="288" y1="4" x2="288" y2="4"/>
		
			<line fill="none" stroke="#404459" stroke-width="2" stroke-linecap="round" stroke-miterlimit="10" x1="268" y1="104" x2="268" y2="104"/>
		
			<line fill="none" stroke="#404459" stroke-width="2" stroke-linecap="round" stroke-miterlimit="10" x1="268" y1="84" x2="268" y2="84"/>
		
			<line fill="none" stroke="#404459" stroke-width="2" stroke-linecap="round" stroke-miterlimit="10" x1="268" y1="64" x2="268" y2="64"/>
		
			<line fill="none" stroke="#404459" stroke-width="2" stroke-linecap="round" stroke-miterlimit="10" x1="268" y1="44" x2="268" y2="44"/>
		
			<line fill="none" stroke="#404459" stroke-width="2" stroke-linecap="round" stroke-miterlimit="10" x1="268" y1="24" x2="268" y2="24"/>
		
			<line fill="none" stroke="#404459" stroke-width="2" stroke-linecap="round" stroke-miterlimit="10" x1="268" y1="4" x2="268" y2="4"/>
		
			<line fill="none" stroke="#404459" stroke-width="2" stroke-linecap="round" stroke-miterlimit="10" x1="248" y1="104" x2="248" y2="104"/>
		
			<line fill="none" stroke="#404459" stroke-width="2" stroke-linecap="round" stroke-miterlimit="10" x1="248" y1="84" x2="248" y2="84"/>
		
			<line fill="none" stroke="#404459" stroke-width="2" stroke-linecap="round" stroke-miterlimit="10" x1="248" y1="64" x2="248" y2="64"/>
		
			<line fill="none" stroke="#404459" stroke-width="2" stroke-linecap="round" stroke-miterlimit="10" x1="248" y1="44" x2="248" y2="44"/>
		
			<line fill="none" stroke="#404459" stroke-width="2" stroke-linecap="round" stroke-miterlimit="10" x1="248" y1="24" x2="248" y2="24"/>
		
			<line fill="none" stroke="#404459" stroke-width="2" stroke-linecap="round" stroke-miterlimit="10" x1="248" y1="4" x2="248" y2="4"/>
		
			<line fill="none" stroke="#404459" stroke-width="2" stroke-linecap="round" stroke-miterlimit="10" x1="228" y1="104" x2="228" y2="104"/>
		
			<line fill="none" stroke="#404459" stroke-width="2" stroke-linecap="round" stroke-miterlimit="10" x1="228" y1="84" x2="228" y2="84"/>
		
			<line fill="none" stroke="#404459" stroke-width="2" stroke-linecap="round" stroke-miterlimit="10" x1="228" y1="64" x2="228" y2="64"/>
		
			<line fill="none" stroke="#404459" stroke-width="2" stroke-linecap="round" stroke-miterlimit="10" x1="228" y1="44" x2="228" y2="44"/>
		
			<line fill="none" stroke="#404459" stroke-width="2" stroke-linecap="round" stroke-miterlimit="10" x1="228" y1="24" x2="228" y2="24"/>
		
			<line fill="none" stroke="#404459" stroke-width="2" stroke-linecap="round" stroke-miterlimit="10" x1="228" y1="4" x2="228" y2="4"/>
		
			<line fill="none" stroke="#404459" stroke-width="2" stroke-linecap="round" stroke-miterlimit="10" x1="208" y1="104" x2="208" y2="104"/>
		
			<line fill="none" stroke="#404459" stroke-width="2" stroke-linecap="round" stroke-miterlimit="10" x1="208" y1="84" x2="208" y2="84"/>
		
			<line fill="none" stroke="#404459" stroke-width="2" stroke-linecap="round" stroke-miterlimit="10" x1="208" y1="64" x2="208" y2="64"/>
		
			<line fill="none" stroke="#404459" stroke-width="2" stroke-linecap="round" stroke-miterlimit="10" x1="208" y1="44" x2="208" y2="44"/>
		
			<line fill="none" stroke="#404459" stroke-width="2" stroke-linecap="round" stroke-miterlimit="10" x1="208" y1="24" x2="208" y2="24"/>
		
			<line fill="none" stroke="#404459" stroke-width="2" stroke-linecap="round" stroke-miterlimit="10" x1="208" y1="4" x2="208" y2="4"/>
		
			<line fill="none" stroke="#404459" stroke-width="2" stroke-linecap="round" stroke-miterlimit="10" x1="188" y1="104" x2="188" y2="104"/>
		
			<line fill="none" stroke="#404459" stroke-width="2" stroke-linecap="round" stroke-miterlimit="10" x1="188" y1="84" x2="188" y2="84"/>
		
			<line fill="none" stroke="#404459" stroke-width="2" stroke-linecap="round" stroke-miterlimit="10" x1="188" y1="64" x2="188" y2="64"/>
		
			<line fill="none" stroke="#404459" stroke-width="2" stroke-linecap="round" stroke-miterlimit="10" x1="188" y1="44" x2="188" y2="44"/>
		
			<line fill="none" stroke="#404459" stroke-width="2" stroke-linecap="round" stroke-miterlimit="10" x1="188" y1="24" x2="188" y2="24"/>
		
			<line fill="none" stroke="#404459" stroke-width="2" stroke-linecap="round" stroke-miterlimit="10" x1="188" y1="4" x2="188" y2="4"/>
		
			<line fill="none" stroke="#404459" stroke-width="2" stroke-linecap="round" stroke-miterlimit="10" x1="168" y1="104" x2="168" y2="104"/>
		
			<line fill="none" stroke="#404459" stroke-width="2" stroke-linecap="round" stroke-miterlimit="10" x1="168" y1="84" x2="168" y2="84"/>
		
			<line fill="none" stroke="#404459" stroke-width="2" stroke-linecap="round" stroke-miterlimit="10" x1="168" y1="64" x2="168" y2="64"/>
		
			<line fill="none" stroke="#404459" stroke-width="2" stroke-linecap="round" stroke-miterlimit="10" x1="168" y1="44" x2="168" y2="44"/>
		
			<line fill="none" stroke="#404459" stroke-width="2" stroke-linecap="round" stroke-miterlimit="10" x1="168" y1="24" x2="168" y2="24"/>
		
			<line fill="none" stroke="#404459" stroke-width="2" stroke-linecap="round" stroke-miterlimit="10" x1="168" y1="4" x2="168" y2="4"/>
		
			<line fill="none" stroke="#404459" stroke-width="2" stroke-linecap="round" stroke-miterlimit="10" x1="148" y1="104" x2="148" y2="104"/>
		
			<line fill="none" stroke="#404459" stroke-width="2" stroke-linecap="round" stroke-miterlimit="10" x1="148" y1="84" x2="148" y2="84"/>
		
			<line fill="none" stroke="#404459" stroke-width="2" stroke-linecap="round" stroke-miterlimit="10" x1="148" y1="64" x2="148" y2="64"/>
		
			<line fill="none" stroke="#404459" stroke-width="2" stroke-linecap="round" stroke-miterlimit="10" x1="148" y1="44" x2="148" y2="44"/>
		
			<line fill="none" stroke="#404459" stroke-width="2" stroke-linecap="round" stroke-miterlimit="10" x1="148" y1="24" x2="148" y2="24"/>
		
			<line fill="none" stroke="#404459" stroke-width="2" stroke-linecap="round" stroke-miterlimit="10" x1="148" y1="4" x2="148" y2="4"/>
		
			<line fill="none" stroke="#404459" stroke-width="2" stroke-linecap="round" stroke-miterlimit="10" x1="128" y1="104" x2="128" y2="104"/>
		
			<line fill="none" stroke="#404459" stroke-width="2" stroke-linecap="round" stroke-miterlimit="10" x1="128" y1="84" x2="128" y2="84"/>
		
			<line fill="none" stroke="#404459" stroke-width="2" stroke-linecap="round" stroke-miterlimit="10" x1="128" y1="64" x2="128" y2="64"/>
		
			<line fill="none" stroke="#404459" stroke-width="2" stroke-linecap="round" stroke-miterlimit="10" x1="128" y1="44" x2="128" y2="44"/>
		
			<line fill="none" stroke="#404459" stroke-width="2" stroke-linecap="round" stroke-miterlimit="10" x1="128" y1="24" x2="128" y2="24"/>
		
			<line fill="none" stroke="#404459" stroke-width="2" stroke-linecap="round" stroke-miterlimit="10" x1="128" y1="4" x2="128" y2="4"/>
		
			<line fill="none" stroke="#404459" stroke-width="2" stroke-linecap="round" stroke-miterlimit="10" x1="108" y1="104" x2="108" y2="104"/>
		
			<line fill="none" stroke="#404459" stroke-width="2" stroke-linecap="round" stroke-miterlimit="10" x1="108" y1="84" x2="108" y2="84"/>
		
			<line fill="none" stroke="#404459" stroke-width="2" stroke-linecap="round" stroke-miterlimit="10" x1="108" y1="64" x2="108" y2="64"/>
		
			<line fill="none" stroke="#404459" stroke-width="2" stroke-linecap="round" stroke-miterlimit="10" x1="108" y1="44" x2="108" y2="44"/>
		
			<line fill="none" stroke="#404459" stroke-width="2" stroke-linecap="round" stroke-miterlimit="10" x1="108" y1="24" x2="108" y2="24"/>
		
			<line fill="none" stroke="#404459" stroke-width="2" stroke-linecap="round" stroke-miterlimit="10" x1="108" y1="4" x2="108" y2="4"/>
		
			<line fill="none" stroke="#404459" stroke-width="2" stroke-linecap="round" stroke-miterlimit="10" x1="88" y1="104" x2="88" y2="104"/>
		
			<line fill="none" stroke="#404459" stroke-width="2" stroke-linecap="round" stroke-miterlimit="10" x1="88" y1="84" x2="88" y2="84"/>
		
			<line fill="none" stroke="#404459" stroke-width="2" stroke-linecap="round" stroke-miterlimit="10" x1="88" y1="64" x2="88" y2="64"/>
		
			<line fill="none" stroke="#404459" stroke-width="2" stroke-linecap="round" stroke-miterlimit="10" x1="88" y1="44" x2="88" y2="44"/>
		
			<line fill="none" stroke="#404459" stroke-width="2" stroke-linecap="round" stroke-miterlimit="10" x1="88" y1="24" x2="88" y2="24"/>
		
			<line fill="none" stroke="#404459" stroke-width="2" stroke-linecap="round" stroke-miterlimit="10" x1="88" y1="4" x2="88" y2="4"/>
		
			<line fill="none" stroke="#404459" stroke-width="2" stroke-linecap="round" stroke-miterlimit="10" x1="68" y1="104" x2="68" y2="104"/>
		
			<line fill="none" stroke="#404459" stroke-width="2" stroke-linecap="round" stroke-miterlimit="10" x1="68" y1="84" x2="68" y2="84"/>
		
			<line fill="none" stroke="#404459" stroke-width="2" stroke-linecap="round" stroke-miterlimit="10" x1="68" y1="64" x2="68" y2="64"/>
		
			<line fill="none" stroke="#404459" stroke-width="2" stroke-linecap="round" stroke-miterlimit="10" x1="68" y1="44" x2="68" y2="44"/>
		
			<line fill="none" stroke="#404459" stroke-width="2" stroke-linecap="round" stroke-miterlimit="10" x1="68" y1="24" x2="68" y2="24"/>
		
			<line fill="none" stroke="#404459" stroke-width="2" stroke-linecap="round" stroke-miterlimit="10" x1="68" y1="4" x2="68" y2="4"/>
		
			<line fill="none" stroke="#404459" stroke-width="2" stroke-linecap="round" stroke-miterlimit="10" x1="48" y1="104" x2="48" y2="104"/>
		
			<line fill="none" stroke="#404459" stroke-width="2" stroke-linecap="round" stroke-miterlimit="10" x1="48" y1="84" x2="48" y2="84"/>
		
			<line fill="none" stroke="#404459" stroke-width="2" stroke-linecap="round" stroke-miterlimit="10" x1="48" y1="64" x2="48" y2="64"/>
		
			<line fill="none" stroke="#404459" stroke-width="2" stroke-linecap="round" stroke-miterlimit="10" x1="48" y1="44" x2="48" y2="44"/>
		
			<line fill="none" stroke="#404459" stroke-width="2" stroke-linecap="round" stroke-miterlimit="10" x1="48" y1="24" x2="48" y2="24"/>
		
			<line fill="none" stroke="#404459" stroke-width="2" stroke-linecap="round" stroke-miterlimit="10" x1="48" y1="4" x2="48" y2="4"/>
		
			<line fill="none" stroke="#404459" stroke-width="2" stroke-linecap="round" stroke-miterlimit="10" x1="28" y1="104" x2="28" y2="104"/>
		
			<line fill="none" stroke="#404459" stroke-width="2" stroke-linecap="round" stroke-miterlimit="10" x1="28" y1="84" x2="28" y2="84"/>
		
			<line fill="none" stroke="#404459" stroke-width="2" stroke-linecap="round" stroke-miterlimit="10" x1="28" y1="64" x2="28" y2="64"/>
		
			<line fill="none" stroke="#404459" stroke-width="2" stroke-linecap="round" stroke-miterlimit="10" x1="28" y1="44" x2="28" y2="44"/>
		
			<line fill="none" stroke="#404459" stroke-width="2" stroke-linecap="round" stroke-miterlimit="10" x1="28" y1="24" x2="28" y2="24"/>
		
			<line fill="none" stroke="#404459" stroke-width="2" stroke-linecap="round" stroke-miterlimit="10" x1="28" y1="4" x2="28" y2="4"/>
	</g>
	<g>
		<g>
			
				<line fill="none" stroke="#404459" stroke-width="2" stroke-linecap="round" stroke-miterlimit="10" x1="328" y1="104" x2="328" y2="104"/>
			
				<line fill="none" stroke="#404459" stroke-width="2" stroke-linecap="round" stroke-miterlimit="10" x1="328" y1="84" x2="328" y2="84"/>
			
				<line fill="none" stroke="#404459" stroke-width="2" stroke-linecap="round" stroke-miterlimit="10" x1="328" y1="64" x2="328" y2="64"/>
			
				<line fill="none" stroke="#404459" stroke-width="2" stroke-linecap="round" stroke-miterlimit="10" x1="328" y1="44" x2="328" y2="44"/>
			
				<line fill="none" stroke="#404459" stroke-width="2" stroke-linecap="round" stroke-miterlimit="10" x1="328" y1="24" x2="328" y2="24"/>
			
				<line fill="none" stroke="#404459" stroke-width="2" stroke-linecap="round" stroke-miterlimit="10" x1="328" y1="4" x2="328" y2="4"/>
			
				<line fill="none" stroke="#404459" stroke-width="2" stroke-linecap="round" stroke-miterlimit="10" x1="308" y1="104" x2="308" y2="104"/>
			
				<line fill="none" stroke="#404459" stroke-width="2" stroke-linecap="round" stroke-miterlimit="10" x1="308" y1="84" x2="308" y2="84"/>
			
				<line fill="none" stroke="#404459" stroke-width="2" stroke-linecap="round" stroke-miterlimit="10" x1="308" y1="64" x2="308" y2="64"/>
			
				<line fill="none" stroke="#404459" stroke-width="2" stroke-linecap="round" stroke-miterlimit="10" x1="308" y1="44" x2="308" y2="44"/>
			
				<line fill="none" stroke="#404459" stroke-width="2" stroke-linecap="round" stroke-miterlimit="10" x1="308" y1="24" x2="308" y2="24"/>
			
				<line fill="none" stroke="#404459" stroke-width="2" stroke-linecap="round" stroke-miterlimit="10" x1="308" y1="4" x2="308" y2="4"/>
			
				<line fill="none" stroke="#404459" stroke-width="2" stroke-linecap="round" stroke-miterlimit="10" x1="288" y1="104" x2="288" y2="104"/>
			
				<line fill="none" stroke="#404459" stroke-width="2" stroke-linecap="round" stroke-miterlimit="10" x1="288" y1="84" x2="288" y2="84"/>
			
				<line fill="none" stroke="#404459" stroke-width="2" stroke-linecap="round" stroke-miterlimit="10" x1="288" y1="64" x2="288" y2="64"/>
			
				<line fill="none" stroke="#404459" stroke-width="2" stroke-linecap="round" stroke-miterlimit="10" x1="288" y1="44" x2="288" y2="44"/>
			
				<line fill="none" stroke="#404459" stroke-width="2" stroke-linecap="round" stroke-miterlimit="10" x1="288" y1="24" x2="288" y2="24"/>
			
				<line fill="none" stroke="#404459" stroke-width="2" stroke-linecap="round" stroke-miterlimit="10" x1="288" y1="4" x2="288" y2="4"/>
			
				<line fill="none" stroke="#404459" stroke-width="2" stroke-linecap="round" stroke-miterlimit="10" x1="268" y1="104" x2="268" y2="104"/>
			
				<line fill="none" stroke="#404459" stroke-width="2" stroke-linecap="round" stroke-miterlimit="10" x1="268" y1="84" x2="268" y2="84"/>
			
				<line fill="none" stroke="#404459" stroke-width="2" stroke-linecap="round" stroke-miterlimit="10" x1="268" y1="64" x2="268" y2="64"/>
			
				<line fill="none" stroke="#404459" stroke-width="2" stroke-linecap="round" stroke-miterlimit="10" x1="268" y1="44" x2="268" y2="44"/>
			
				<line fill="none" stroke="#404459" stroke-width="2" stroke-linecap="round" stroke-miterlimit="10" x1="268" y1="24" x2="268" y2="24"/>
			
				<line fill="none" stroke="#404459" stroke-width="2" stroke-linecap="round" stroke-miterlimit="10" x1="268" y1="4" x2="268" y2="4"/>
			
				<line fill="none" stroke="#404459" stroke-width="2" stroke-linecap="round" stroke-miterlimit="10" x1="248" y1="104" x2="248" y2="104"/>
			
				<line fill="none" stroke="#404459" stroke-width="2" stroke-linecap="round" stroke-miterlimit="10" x1="248" y1="84" x2="248" y2="84"/>
			
				<line fill="none" stroke="#404459" stroke-width="2" stroke-linecap="round" stroke-miterlimit="10" x1="248" y1="64" x2="248" y2="64"/>
			
				<line fill="none" stroke="#404459" stroke-width="2" stroke-linecap="round" stroke-miterlimit="10" x1="248" y1="44" x2="248" y2="44"/>
			
				<line fill="none" stroke="#404459" stroke-width="2" stroke-linecap="round" stroke-miterlimit="10" x1="248" y1="24" x2="248" y2="24"/>
			
				<line fill="none" stroke="#404459" stroke-width="2" stroke-linecap="round" stroke-miterlimit="10" x1="248" y1="4" x2="248" y2="4"/>
			
				<line fill="none" stroke="#404459" stroke-width="2" stroke-linecap="round" stroke-miterlimit="10" x1="228" y1="104" x2="228" y2="104"/>
			
				<line fill="none" stroke="#404459" stroke-width="2" stroke-linecap="round" stroke-miterlimit="10" x1="228" y1="84" x2="228" y2="84"/>
			
				<line fill="none" stroke="#404459" stroke-width="2" stroke-linecap="round" stroke-miterlimit="10" x1="228" y1="64" x2="228" y2="64"/>
			
				<line fill="none" stroke="#404459" stroke-width="2" stroke-linecap="round" stroke-miterlimit="10" x1="228" y1="44" x2="228" y2="44"/>
			
				<line fill="none" stroke="#404459" stroke-width="2" stroke-linecap="round" stroke-miterlimit="10" x1="228" y1="24" x2="228" y2="24"/>
			
				<line fill="none" stroke="#404459" stroke-width="2" stroke-linecap="round" stroke-miterlimit="10" x1="228" y1="4" x2="228" y2="4"/>
			
				<line fill="none" stroke="#404459" stroke-width="2" stroke-linecap="round" stroke-miterlimit="10" x1="208" y1="104" x2="208" y2="104"/>
			
				<line fill="none" stroke="#404459" stroke-width="2" stroke-linecap="round" stroke-miterlimit="10" x1="208" y1="84" x2="208" y2="84"/>
			
				<line fill="none" stroke="#404459" stroke-width="2" stroke-linecap="round" stroke-miterlimit="10" x1="208" y1="64" x2="208" y2="64"/>
			
				<line fill="none" stroke="#404459" stroke-width="2" stroke-linecap="round" stroke-miterlimit="10" x1="208" y1="44" x2="208" y2="44"/>
			
				<line fill="none" stroke="#404459" stroke-width="2" stroke-linecap="round" stroke-miterlimit="10" x1="208" y1="24" x2="208" y2="24"/>
			
				<line fill="none" stroke="#404459" stroke-width="2" stroke-linecap="round" stroke-miterlimit="10" x1="208" y1="4" x2="208" y2="4"/>
			
				<line fill="none" stroke="#404459" stroke-width="2" stroke-linecap="round" stroke-miterlimit="10" x1="188" y1="104" x2="188" y2="104"/>
			
				<line fill="none" stroke="#404459" stroke-width="2" stroke-linecap="round" stroke-miterlimit="10" x1="188" y1="84" x2="188" y2="84"/>
			
				<line fill="none" stroke="#404459" stroke-width="2" stroke-linecap="round" stroke-miterlimit="10" x1="188" y1="64" x2="188" y2="64"/>
			
				<line fill="none" stroke="#404459" stroke-width="2" stroke-linecap="round" stroke-miterlimit="10" x1="188" y1="44" x2="188" y2="44"/>
			
				<line fill="none" stroke="#404459" stroke-width="2" stroke-linecap="round" stroke-miterlimit="10" x1="188" y1="24" x2="188" y2="24"/>
			
				<line fill="none" stroke="#404459" stroke-width="2" stroke-linecap="round" stroke-miterlimit="10" x1="188" y1="4" x2="188" y2="4"/>
			
				<line fill="none" stroke="#404459" stroke-width="2" stroke-linecap="round" stroke-miterlimit="10" x1="168" y1="104" x2="168" y2="104"/>
			
				<line fill="none" stroke="#404459" stroke-width="2" stroke-linecap="round" stroke-miterlimit="10" x1="168" y1="84" x2="168" y2="84"/>
			
				<line fill="none" stroke="#404459" stroke-width="2" stroke-linecap="round" stroke-miterlimit="10" x1="168" y1="64" x2="168" y2="64"/>
			
				<line fill="none" stroke="#404459" stroke-width="2" stroke-linecap="round" stroke-miterlimit="10" x1="168" y1="44" x2="168" y2="44"/>
			
				<line fill="none" stroke="#404459" stroke-width="2" stroke-linecap="round" stroke-miterlimit="10" x1="168" y1="24" x2="168" y2="24"/>
			
				<line fill="none" stroke="#404459" stroke-width="2" stroke-linecap="round" stroke-miterlimit="10" x1="168" y1="4" x2="168" y2="4"/>
			
				<line fill="none" stroke="#404459" stroke-width="2" stroke-linecap="round" stroke-miterlimit="10" x1="148" y1="104" x2="148" y2="104"/>
			
				<line fill="none" stroke="#404459" stroke-width="2" stroke-linecap="round" stroke-miterlimit="10" x1="148" y1="84" x2="148" y2="84"/>
			
				<line fill="none" stroke="#404459" stroke-width="2" stroke-linecap="round" stroke-miterlimit="10" x1="148" y1="64" x2="148" y2="64"/>
			
				<line fill="none" stroke="#404459" stroke-width="2" stroke-linecap="round" stroke-miterlimit="10" x1="148" y1="44" x2="148" y2="44"/>
			
				<line fill="none" stroke="#404459" stroke-width="2" stroke-linecap="round" stroke-miterlimit="10" x1="148" y1="24" x2="148" y2="24"/>
			
				<line fill="none" stroke="#404459" stroke-width="2" stroke-linecap="round" stroke-miterlimit="10" x1="148" y1="4" x2="148" y2="4"/>
			
				<line fill="none" stroke="#404459" stroke-width="2" stroke-linecap="round" stroke-miterlimit="10" x1="128" y1="104" x2="128" y2="104"/>
			
				<line fill="none" stroke="#404459" stroke-width="2" stroke-linecap="round" stroke-miterlimit="10" x1="128" y1="84" x2="128" y2="84"/>
			
				<line fill="none" stroke="#404459" stroke-width="2" stroke-linecap="round" stroke-miterlimit="10" x1="128" y1="64" x2="128" y2="64"/>
			
				<line fill="none" stroke="#404459" stroke-width="2" stroke-linecap="round" stroke-miterlimit="10" x1="128" y1="44" x2="128" y2="44"/>
			
				<line fill="none" stroke="#404459" stroke-width="2" stroke-linecap="round" stroke-miterlimit="10" x1="128" y1="24" x2="128" y2="24"/>
			
				<line fill="none" stroke="#404459" stroke-width="2" stroke-linecap="round" stroke-miterlimit="10" x1="128" y1="4" x2="128" y2="4"/>
			
				<line fill="none" stroke="#404459" stroke-width="2" stroke-linecap="round" stroke-miterlimit="10" x1="108" y1="104" x2="108" y2="104"/>
			
				<line fill="none" stroke="#404459" stroke-width="2" stroke-linecap="round" stroke-miterlimit="10" x1="108" y1="84" x2="108" y2="84"/>
			
				<line fill="none" stroke="#404459" stroke-width="2" stroke-linecap="round" stroke-miterlimit="10" x1="108" y1="64" x2="108" y2="64"/>
			
				<line fill="none" stroke="#404459" stroke-width="2" stroke-linecap="round" stroke-miterlimit="10" x1="108" y1="44" x2="108" y2="44"/>
			
				<line fill="none" stroke="#404459" stroke-width="2" stroke-linecap="round" stroke-miterlimit="10" x1="108" y1="24" x2="108" y2="24"/>
			
				<line fill="none" stroke="#404459" stroke-width="2" stroke-linecap="round" stroke-miterlimit="10" x1="108" y1="4" x2="108" y2="4"/>
			
				<line fill="none" stroke="#404459" stroke-width="2" stroke-linecap="round" stroke-miterlimit="10" x1="88" y1="104" x2="88" y2="104"/>
			
				<line fill="none" stroke="#404459" stroke-width="2" stroke-linecap="round" stroke-miterlimit="10" x1="88" y1="84" x2="88" y2="84"/>
			
				<line fill="none" stroke="#404459" stroke-width="2" stroke-linecap="round" stroke-miterlimit="10" x1="88" y1="64" x2="88" y2="64"/>
			
				<line fill="none" stroke="#404459" stroke-width="2" stroke-linecap="round" stroke-miterlimit="10" x1="88" y1="44" x2="88" y2="44"/>
			
				<line fill="none" stroke="#404459" stroke-width="2" stroke-linecap="round" stroke-miterlimit="10" x1="88" y1="24" x2="88" y2="24"/>
			
				<line fill="none" stroke="#404459" stroke-width="2" stroke-linecap="round" stroke-miterlimit="10" x1="88" y1="4" x2="88" y2="4"/>
			
				<line fill="none" stroke="#404459" stroke-width="2" stroke-linecap="round" stroke-miterlimit="10" x1="68" y1="104" x2="68" y2="104"/>
			
				<line fill="none" stroke="#404459" stroke-width="2" stroke-linecap="round" stroke-miterlimit="10" x1="68" y1="84" x2="68" y2="84"/>
			
				<line fill="none" stroke="#404459" stroke-width="2" stroke-linecap="round" stroke-miterlimit="10" x1="68" y1="64" x2="68" y2="64"/>
			
				<line fill="none" stroke="#404459" stroke-width="2" stroke-linecap="round" stroke-miterlimit="10" x1="68" y1="44" x2="68" y2="44"/>
			
				<line fill="none" stroke="#404459" stroke-width="2" stroke-linecap="round" stroke-miterlimit="10" x1="68" y1="24" x2="68" y2="24"/>
			
				<line fill="none" stroke="#404459" stroke-width="2" stroke-linecap="round" stroke-miterlimit="10" x1="68" y1="4" x2="68" y2="4"/>
			
				<line fill="none" stroke="#404459" stroke-width="2" stroke-linecap="round" stroke-miterlimit="10" x1="48" y1="104" x2="48" y2="104"/>
			
				<line fill="none" stroke="#404459" stroke-width="2" stroke-linecap="round" stroke-miterlimit="10" x1="48" y1="84" x2="48" y2="84"/>
			
				<line fill="none" stroke="#404459" stroke-width="2" stroke-linecap="round" stroke-miterlimit="10" x1="48" y1="64" x2="48" y2="64"/>
			
				<line fill="none" stroke="#404459" stroke-width="2" stroke-linecap="round" stroke-miterlimit="10" x1="48" y1="44" x2="48" y2="44"/>
			
				<line fill="none" stroke="#404459" stroke-width="2" stroke-linecap="round" stroke-miterlimit="10" x1="48" y1="24" x2="48" y2="24"/>
			
				<line fill="none" stroke="#404459" stroke-width="2" stroke-linecap="round" stroke-miterlimit="10" x1="48" y1="4" x2="48" y2="4"/>
			
				<line fill="none" stroke="#404459" stroke-width="2" stroke-linecap="round" stroke-miterlimit="10" x1="28" y1="104" x2="28" y2="104"/>
			
				<line fill="none" stroke="#404459" stroke-width="2" stroke-linecap="round" stroke-miterlimit="10" x1="28" y1="84" x2="28" y2="84"/>
			
				<line fill="none" stroke="#404459" stroke-width="2" stroke-linecap="round" stroke-miterlimit="10" x1="28" y1="64" x2="28" y2="64"/>
			
				<line fill="none" stroke="#404459" stroke-width="2" stroke-linecap="round" stroke-miterlimit="10" x1="28" y1="44" x2="28" y2="44"/>
			
				<line fill="none" stroke="#404459" stroke-width="2" stroke-linecap="round" stroke-miterlimit="10" x1="28" y1="24" x2="28" y2="24"/>
			
				<line fill="none" stroke="#404459" stroke-width="2" stroke-linecap="round" stroke-miterlimit="10" x1="28" y1="4" x2="28" y2="4"/>
		</g>
		<g opacity="0.6">
			<g>
				
					<line fill="none" stroke="#EFDC2E" stroke-width="2" stroke-linecap="round" stroke-miterlimit="10" x1="308" y1="4" x2="308" y2="4"/>
				
					<line fill="none" stroke="#EFDC2E" stroke-width="2" stroke-linecap="round" stroke-miterlimit="10" stroke-dasharray="0,5" x1="308" y1="9" x2="308" y2="21.5"/>
				
					<line fill="none" stroke="#EFDC2E" stroke-width="2" stroke-linecap="round" stroke-miterlimit="10" x1="308" y1="24" x2="308" y2="24"/>
				
					<polyline fill="none" stroke="#EFDC2E" stroke-width="2" stroke-linecap="round" stroke-miterlimit="10" stroke-dasharray="0,5" points="
					303,24 288,24 230.5,24 				"/>
				
					<line fill="none" stroke="#EFDC2E" stroke-width="2" stroke-linecap="round" stroke-miterlimit="10" x1="228" y1="24" x2="228" y2="24"/>
			</g>
		</g>
		<g opacity="0.6">
			<g>
				
					<line fill="none" stroke="#EFDC2E" stroke-width="2" stroke-linecap="round" stroke-miterlimit="10" x1="328" y1="4" x2="328" y2="4"/>
				
					<line fill="none" stroke="#EFDC2E" stroke-width="2" stroke-linecap="round" stroke-miterlimit="10" stroke-dasharray="0,5" x1="328" y1="9" x2="328" y2="41.5"/>
				
					<line fill="none" stroke="#EFDC2E" stroke-width="2" stroke-linecap="round" stroke-miterlimit="10" x1="328" y1="44" x2="328" y2="44"/>
				
					<polyline fill="none" stroke="#EFDC2E" stroke-width="2" stroke-linecap="round" stroke-miterlimit="10" stroke-dasharray="0,5" points="
					323,44 288,44 230.5,44 				"/>
				
					<line fill="none" stroke="#EFDC2E" stroke-width="2" stroke-linecap="round" stroke-miterlimit="10" x1="228" y1="44" x2="228" y2="44"/>
			</g>
		</g>
		<g opacity="0.6">
			<g>
				
					<line fill="none" stroke="#EFDC2E" stroke-width="2" stroke-linecap="round" stroke-miterlimit="10" x1="328" y1="104" x2="328" y2="104"/>
				
					<line fill="none" stroke="#EFDC2E" stroke-width="2" stroke-linecap="round" stroke-miterlimit="10" stroke-dasharray="0,5" x1="328" y1="99" x2="328" y2="66.5"/>
				
					<line fill="none" stroke="#EFDC2E" stroke-width="2" stroke-linecap="round" stroke-miterlimit="10" x1="328" y1="64" x2="328" y2="64"/>
				
					<polyline fill="none" stroke="#EFDC2E" stroke-width="2" stroke-linecap="round" stroke-miterlimit="10" stroke-dasharray="0,5" points="
					323,64 288,64 230.5,64 				"/>
				
					<line fill="none" stroke="#EFDC2E" stroke-width="2" stroke-linecap="round" stroke-miterlimit="10" x1="228" y1="64" x2="228" y2="64"/>
			</g>
		</g>
		<g opacity="0.6">
			<g>
				
					<line fill="none" stroke="#EFDC2E" stroke-width="2" stroke-linecap="round" stroke-miterlimit="10" x1="308" y1="104" x2="308" y2="104"/>
				
					<line fill="none" stroke="#EFDC2E" stroke-width="2" stroke-linecap="round" stroke-miterlimit="10" stroke-dasharray="0,5" x1="308" y1="99" x2="308" y2="86.5"/>
				
					<line fill="none" stroke="#EFDC2E" stroke-width="2" stroke-linecap="round" stroke-miterlimit="10" x1="308" y1="84" x2="308" y2="84"/>
				
					<polyline fill="none" stroke="#EFDC2E" stroke-width="2" stroke-linecap="round" stroke-miterlimit="10" stroke-dasharray="0,5" points="
					303,84 288,84 230.5,84 				"/>
				
					<line fill="none" stroke="#EFDC2E" stroke-width="2" stroke-linecap="round" stroke-miterlimit="10" x1="228" y1="84" x2="228" y2="84"/>
			</g>
		</g>
		<circle fill="#EFDC2E" cx="308" cy="4" r="2"/>
		<circle fill="#EFDC2E" cx="328" cy="4" r="2"/>
		<circle fill="#EFDC2E" cx="328" cy="104" r="2"/>
		<circle fill="#EFDC2E" cx="308" cy="104" r="2"/>
		<g opacity="0.6">
			<g>
				
					<line fill="none" stroke="#EFDC2E" stroke-width="2" stroke-linecap="round" stroke-miterlimit="10" x1="48" y1="4" x2="48" y2="4"/>
				
					<line fill="none" stroke="#EFDC2E" stroke-width="2" stroke-linecap="round" stroke-miterlimit="10" stroke-dasharray="0,5" x1="48" y1="9" x2="48" y2="21.5"/>
				
					<line fill="none" stroke="#EFDC2E" stroke-width="2" stroke-linecap="round" stroke-miterlimit="10" x1="48" y1="24" x2="48" y2="24"/>
				
					<polyline fill="none" stroke="#EFDC2E" stroke-width="2" stroke-linecap="round" stroke-miterlimit="10" stroke-dasharray="0,5" points="
					53,24 68,24 125.5,24 				"/>
				
					<line fill="none" stroke="#EFDC2E" stroke-width="2" stroke-linecap="round" stroke-miterlimit="10" x1="128" y1="24" x2="128" y2="24"/>
			</g>
		</g>
		<g opacity="0.6">
			<g>
				
					<line fill="none" stroke="#EFDC2E" stroke-width="2" stroke-linecap="round" stroke-miterlimit="10" x1="28" y1="4" x2="28" y2="4"/>
				
					<line fill="none" stroke="#EFDC2E" stroke-width="2" stroke-linecap="round" stroke-miterlimit="10" stroke-dasharray="0,5" x1="28" y1="9" x2="28" y2="41.5"/>
				
					<line fill="none" stroke="#EFDC2E" stroke-width="2" stroke-linecap="round" stroke-miterlimit="10" x1="28" y1="44" x2="28" y2="44"/>
				
					<polyline fill="none" stroke="#EFDC2E" stroke-width="2" stroke-linecap="round" stroke-miterlimit="10" stroke-dasharray="0,5" points="
					33,44 68,44 125.5,44 				"/>
				
					<line fill="none" stroke="#EFDC2E" stroke-width="2" stroke-linecap="round" stroke-miterlimit="10" x1="128" y1="44" x2="128" y2="44"/>
			</g>
		</g>
		<g opacity="0.6">
			<g>
				
					<line fill="none" stroke="#EFDC2E" stroke-width="2" stroke-linecap="round" stroke-miterlimit="10" x1="28" y1="104" x2="28" y2="104"/>
				
					<line fill="none" stroke="#EFDC2E" stroke-width="2" stroke-linecap="round" stroke-miterlimit="10" stroke-dasharray="0,5" x1="28" y1="99" x2="28" y2="66.5"/>
				
					<line fill="none" stroke="#EFDC2E" stroke-width="2" stroke-linecap="round" stroke-miterlimit="10" x1="28" y1="64" x2="28" y2="64"/>
				
					<polyline fill="none" stroke="#EFDC2E" stroke-width="2" stroke-linecap="round" stroke-miterlimit="10" stroke-dasharray="0,5" points="
					33,64 68,64 125.5,64 				"/>
				
					<line fill="none" stroke="#EFDC2E" stroke-width="2" stroke-linecap="round" stroke-miterlimit="10" x1="128" y1="64" x2="128" y2="64"/>
			</g>
		</g>
		<g opacity="0.6">
			<g>
				
					<line fill="none" stroke="#EFDC2E" stroke-width="2" stroke-linecap="round" stroke-miterlimit="10" x1="48" y1="104" x2="48" y2="104"/>
				
					<line fill="none" stroke="#EFDC2E" stroke-width="2" stroke-linecap="round" stroke-miterlimit="10" stroke-dasharray="0,5" x1="48" y1="99" x2="48" y2="86.5"/>
				
					<line fill="none" stroke="#EFDC2E" stroke-width="2" stroke-linecap="round" stroke-miterlimit="10" x1="48" y1="84" x2="48" y2="84"/>
				
					<polyline fill="none" stroke="#EFDC2E" stroke-width="2" stroke-linecap="round" stroke-miterlimit="10" stroke-dasharray="0,5" points="
					53,84 68,84 125.5,84 				"/>
				
					<line fill="none" stroke="#EFDC2E" stroke-width="2" stroke-linecap="round" stroke-miterlimit="10" x1="128" y1="84" x2="128" y2="84"/>
			</g>
		</g>
		<circle fill="#EFDC2E" cx="48" cy="4" r="2"/>
		<circle fill="#EFDC2E" cx="28" cy="4" r="2"/>
		<circle fill="#EFDC2E" cx="28" cy="104" r="2"/>
		<circle fill="#EFDC2E" cx="48" cy="104" r="2"/>
	</g>
</g>
<g>
	<path fill="#FFFFFF" d="M190.5,27.4c-1.9-0.9-4.1-0.4-5.5,1.1c-5.3-1.6-10.9-1.5-16.2,0.3c-6.7,2.3-12.2,7.1-15.3,13.5
		c-3.1,6.4-3.6,13.6-1.3,20.4c1.8,5.3,5.2,9.8,9.7,13c-0.4,2,0.6,4.1,2.5,5c2.3,1.1,5.1,0.2,6.2-2.1c1.1-2.3,0.2-5.1-2.1-6.2
		c-1.6-0.8-3.5-0.5-4.9,0.5c-3.8-2.8-6.7-6.7-8.2-11.2c-2-5.9-1.6-12.2,1.2-17.8c2.8-5.6,7.5-9.8,13.4-11.8
		c4.6-1.6,9.4-1.6,13.9-0.3c0,1.7,0.9,3.4,2.6,4.2c2.3,1.1,5.1,0.2,6.2-2.1C193.7,31.3,192.8,28.5,190.5,27.4z"/>
	<path fill="#FFFFFF" d="M180.7,57.5c-0.3-0.4-0.7-0.9-1.1-1.3c-0.4-0.4-0.9-0.8-1.5-1.2c-0.5-0.4-0.9-0.7-1.3-1
		c-0.4-0.3-0.6-0.6-0.9-0.9s-0.4-0.6-0.5-0.9c-0.1-0.3-0.2-0.6-0.2-1c0-0.5,0.1-0.9,0.4-1.2c0.3-0.3,0.7-0.4,1.2-0.4
		c0.6,0,1,0.2,1.3,0.5c0.3,0.4,0.4,0.8,0.4,1.4v1.1h3v-1.1c0-0.7-0.1-1.3-0.3-1.8c-0.2-0.6-0.5-1-0.9-1.4c-0.4-0.4-0.9-0.7-1.5-0.9
		c-0.6-0.2-1.2-0.3-1.9-0.3c-0.8,0-1.5,0.1-2.1,0.4c-0.6,0.3-1.1,0.6-1.5,1c-0.4,0.4-0.7,0.9-0.9,1.5c-0.2,0.6-0.3,1.2-0.3,1.8
		c0,0.6,0.1,1.2,0.3,1.7c0.2,0.5,0.5,1,0.9,1.5c0.4,0.5,0.8,0.9,1.2,1.3c0.4,0.4,0.9,0.7,1.4,1.1c0.9,0.7,1.6,1.3,2,1.8
		c0.4,0.5,0.7,1.2,0.7,1.9c0,0.6-0.1,1-0.4,1.3c-0.3,0.3-0.7,0.5-1.3,0.5c-1.2,0-1.8-0.7-1.8-2v-1h-3v1.2c0,1.4,0.4,2.5,1.3,3.3
		c0.9,0.8,2.1,1.3,3.6,1.3c0.7,0,1.4-0.1,2-0.4c0.6-0.2,1.1-0.6,1.5-1c0.4-0.4,0.8-1,1-1.6c0.2-0.6,0.4-1.3,0.4-2
		c0-0.6-0.1-1.2-0.3-1.7C181.3,58.4,181,58,180.7,57.5z"/>
	<rect x="186.8" y="47.4" fill="#FFFFFF" width="3.3" height="17.8"/>
	<path fill="#FFFFFF" d="M204.2,48.4c-0.7-0.7-1.7-1-3-1h-5.5v17.8h3.3v-6.8h2.2c1.3,0,2.2-0.3,3-1c0.7-0.7,1.1-1.7,1.1-2.9v-3
		C205.3,50.1,204.9,49.1,204.2,48.4z M202.1,54.4c0,0.9-0.4,1.3-1.2,1.3h-1.8v-5.7h1.8c0.8,0,1.2,0.4,1.2,1.3V54.4z"/>
</g>
</svg>
